<svg width="19" height="21" viewBox="0 0 19 21" fill="none" xmlns="http://www.w3.org/2000/svg">
<path d="M8.05635 18.0001C8.20264 18.2534 8.41303 18.4638 8.66639 18.6101C8.91975 18.7564 9.20714 18.8334 9.49969 18.8334C9.79224 18.8334 10.0796 18.7564 10.333 18.6101C10.5863 18.4638 10.7967 18.2534 10.943 18.0001M11.0964 2.42843C10.3443 2.17499 9.54263 2.10423 8.75776 2.22199C7.97289 2.33976 7.22733 2.64267 6.58273 3.10568C5.93814 3.56869 5.41302 4.1785 5.0508 4.88468C4.68858 5.59085 4.49967 6.37311 4.49969 7.16676C4.49969 10.9159 3.32385 12.1301 2.21635 13.2726C2.10767 13.392 2.03603 13.5405 2.01015 13.6999C1.98428 13.8593 2.00529 14.0228 2.07061 14.1705C2.13594 14.3182 2.24278 14.4438 2.37813 14.5319C2.51349 14.6199 2.67152 14.6668 2.83302 14.6668H16.1664C16.3279 14.6668 16.4859 14.6199 16.6212 14.5319C16.7566 14.4438 16.8634 14.3182 16.9288 14.1705C16.9941 14.0228 17.0151 13.8593 16.9892 13.6999C16.9633 13.5405 16.8917 13.392 16.783 13.2726C16.6115 13.096 16.4488 12.911 16.2955 12.7184M16.9997 7.16676C16.9997 8.54747 15.8804 9.66676 14.4997 9.66676C13.119 9.66676 11.9997 8.54747 11.9997 7.16676C11.9997 5.78605 13.119 4.66676 14.4997 4.66676C15.8804 4.66676 16.9997 5.78605 16.9997 7.16676Z" stroke="white" stroke-width="1.5" stroke-linecap="round" stroke-linejoin="round"/>
</svg>
