<svg width="116" height="15" viewBox="0 0 116 15" fill="none" xmlns="http://www.w3.org/2000/svg">
<g clip-path="url(#clip0_24_156)">
<path d="M114.989 0.320054C113.322 0.310873 111.653 0.316382 109.986 0.316382V0.320054C108.621 0.320054 107.256 0.303529 105.894 0.329234C105.46 0.338414 104.997 0.162152 104.589 0.459595C104.866 0.777235 105.125 1.10956 105.422 1.40517C105.664 1.64569 105.741 1.8954 105.673 2.22956C105.542 2.88504 105.436 3.54603 105.318 4.20334C104.793 7.10616 104.268 10.0071 103.744 12.91C103.667 13.3286 103.591 13.7491 103.536 14.1714C103.485 14.5698 103.574 14.6708 103.953 14.6983C104.134 14.7112 104.318 14.7038 104.498 14.7038C106.53 14.7038 108.561 14.7038 110.593 14.7038C111.228 14.7038 111.866 14.6891 112.502 14.7093C112.865 14.7203 113.078 14.5918 113.14 14.2283C113.291 13.3598 113.466 12.495 113.586 11.6211C113.664 11.0537 113.582 10.9821 113.016 10.9766C111.955 10.9656 110.893 10.9748 109.833 10.9729C109.041 10.9717 108.727 10.5892 108.891 9.82538C109.02 9.22315 109.051 9.18643 109.665 9.18092C110.726 9.17174 111.788 9.16623 112.848 9.18275C113.205 9.18826 113.435 9.07075 113.502 8.71272C113.657 7.87547 113.825 7.04006 113.947 6.19731C114.014 5.72727 113.914 5.64281 113.38 5.63731C112.38 5.62629 111.38 5.64098 110.379 5.63363C109.723 5.62996 109.722 5.62078 109.773 4.96714C109.784 4.81475 109.793 4.66052 109.827 4.51363C109.898 4.22904 110.02 4.00321 110.381 4.03993C110.591 4.06196 110.806 4.0436 111.017 4.0436C112.169 4.0436 113.322 4.03993 114.473 4.04727C114.794 4.04911 114.98 3.94445 115.029 3.59744C115.157 2.69409 115.311 1.79442 115.444 0.891071C115.526 0.34025 115.517 0.32189 114.987 0.318218L114.989 0.320054Z" fill="white"/>
<path d="M20.8252 0.325567C19.6117 0.310879 18.3983 0.325567 17.1867 0.318223C16.8441 0.316387 16.7275 0.472453 16.6711 0.801109C16.4597 2.02944 16.2046 3.25042 15.986 4.47875C15.5706 6.81423 15.1643 9.14971 14.7616 11.487C14.6013 12.4161 14.4701 13.3506 14.3007 14.2797C14.2351 14.6377 14.3918 14.7057 14.6851 14.7038C15.2918 14.6983 15.8985 14.7038 16.5053 14.7038C17.112 14.7038 17.7187 14.7148 18.3254 14.7001C18.8374 14.6891 18.852 14.6561 18.9412 14.1218C19.1927 12.5905 19.4368 11.0592 19.7065 9.53161C20.2148 6.65633 20.7395 3.78472 21.257 0.911273C21.339 0.454092 21.2679 0.332911 20.8288 0.327403L20.8252 0.325567Z" fill="white"/>
<path d="M36.6127 0.325565C35.6434 0.312712 34.6723 0.314548 33.703 0.321893C32.2964 0.332909 32.6499 0.171335 32.3784 1.47678C31.983 3.37344 31.7024 5.29213 31.3399 7.39443C31.0629 6.81423 30.8534 6.38643 30.6511 5.95495C29.8513 4.24557 29.0478 2.53619 28.2607 0.821303C28.1022 0.474286 27.8908 0.310876 27.4991 0.316384C26.3166 0.334745 25.136 0.325565 23.9535 0.320057C23.6383 0.318221 23.4488 0.410024 23.396 0.764385C23.3104 1.3354 23.1737 1.89724 23.0717 2.46642C22.7182 4.44019 22.3666 6.41397 22.0222 8.39141C21.6833 10.3395 21.3663 12.2894 21.0147 14.2338C20.9564 14.5569 21.0074 14.7001 21.3372 14.702C22.5798 14.702 23.8223 14.713 25.0649 14.6983C25.5022 14.6928 25.5806 14.5863 25.668 14.0704C25.9249 12.5409 26.1763 11.0115 26.4405 9.48387C26.528 8.98079 26.6428 8.48322 26.7776 7.83141C26.9398 8.15456 27.0327 8.33449 27.1201 8.5181C28.0056 10.356 28.913 12.1847 29.7602 14.041C30.0043 14.5753 30.3177 14.7369 30.8698 14.7167C31.8682 14.6799 32.8703 14.7093 33.8688 14.7057C34.6486 14.702 34.6468 14.6983 34.8071 13.8721C34.8526 13.6334 34.9128 13.3965 34.9528 13.156C35.279 11.2373 35.5905 9.31863 35.9276 7.40177C36.312 5.21685 36.7202 3.03744 37.1119 0.854352C37.1866 0.443073 37.09 0.334745 36.6145 0.327401L36.6127 0.325565Z" fill="white"/>
<path d="M12.5625 0.878218C11.7918 0.485299 10.9664 0.321889 10.1101 0.320053C7.16759 0.316381 4.22508 0.316381 1.28258 0.320053C1.05119 0.320053 0.821618 0.35861 0.48455 0.387988C0.710477 0.650545 0.858057 0.837824 1.02386 1.00674C1.59778 1.59612 2.16806 2.18917 2.76203 2.75652C3.01346 2.99704 3.0827 3.25776 3.0244 3.57907C2.6928 5.40413 2.36119 7.23101 2.03324 9.05606C1.72168 10.793 1.42105 12.5317 1.10585 14.2687C1.05483 14.5477 1.15504 14.6891 1.42105 14.6891C2.69462 14.6965 3.96818 14.6928 5.24357 14.6965C5.48772 14.6965 5.64623 14.6083 5.69907 14.3531C5.73551 14.175 5.79563 14.0006 5.82661 13.8207C6.00698 12.8329 6.17461 11.8432 6.36045 10.8572C6.47159 10.2605 6.48434 10.2826 7.09653 10.2477C8.00206 10.1963 8.93309 10.233 9.80582 10.0273C12.6827 9.35167 14.3353 7.35954 14.5339 4.40163C14.6377 2.8575 13.9982 1.60897 12.5625 0.876382V0.878218ZM9.05334 6.3497C8.8347 6.44334 8.5942 6.52045 8.35917 6.53147C7.97473 6.548 7.58847 6.50209 7.20221 6.4819C7.22954 6.13304 7.25322 5.78419 7.28784 5.43534C7.30606 5.2554 7.33339 5.07363 7.36983 4.89737C7.48522 4.33309 7.82047 4.05278 8.37556 4.05645C8.46666 4.05645 8.55594 4.05278 8.64704 4.05645C9.3649 4.08399 9.70379 4.28412 9.77667 4.72294C9.88599 5.37475 9.56168 6.13304 9.05334 6.35154V6.3497Z" fill="white"/>
<path d="M46.4405 10.9803C45.3181 10.9656 44.1958 10.9748 43.0753 10.9729C42.4266 10.9729 42.1539 10.6571 42.2572 10.0255C42.2718 9.93554 42.2882 9.84557 42.3118 9.75744C42.4558 9.19377 42.4558 9.18459 43.037 9.18092C44.0974 9.17357 45.1596 9.18643 46.22 9.17541C46.721 9.1699 46.8395 9.09462 46.9233 8.65213C47.0909 7.75613 47.2203 6.85095 47.377 5.95127C47.4116 5.74931 47.3387 5.65934 47.1601 5.64649C46.9488 5.6318 46.7356 5.63731 46.5243 5.63731C45.524 5.63731 44.5237 5.63547 43.5216 5.63731C43.2666 5.63731 43.1427 5.55101 43.1408 5.26275C43.1336 4.26393 43.3303 4.04911 44.3087 4.04727C45.4602 4.04727 46.6135 4.05278 47.765 4.0436C48.3408 4.03809 48.3353 4.01973 48.4319 3.42668C48.5758 2.55639 48.7343 1.68976 48.8837 0.821301C48.9584 0.395333 48.9275 0.356776 48.4938 0.325562C48.3736 0.316382 48.2515 0.32189 48.1294 0.32189C45.4602 0.32189 42.7928 0.32189 40.1236 0.32189C40.0016 0.32189 39.8813 0.325562 39.7592 0.323726C39.475 0.320054 39.3256 0.441235 39.2746 0.74235C39.0468 2.09186 38.7954 3.4377 38.5604 4.78721C38.0229 7.8718 37.4909 10.9582 36.9552 14.0447C36.8568 14.6065 36.9115 14.6965 37.4763 14.7001C38.841 14.7112 40.2056 14.7038 41.5703 14.7038C42.9951 14.7038 44.4199 14.7093 45.8465 14.7001C46.3658 14.6965 46.4587 14.6395 46.5461 14.1824C46.7101 13.3157 46.8595 12.4454 46.9688 11.5715C47.0344 11.039 46.9725 10.9876 46.4386 10.9821L46.4405 10.9803Z" fill="white"/>
<path d="M82.4611 0.32189C81.1875 0.316382 79.9121 0.307201 78.6386 0.32189C77.4798 0.336578 77.713 0.0887091 77.0625 1.29501C76.1953 2.90524 75.3626 4.53383 74.5099 6.15141C74.0927 6.94275 73.6591 7.72492 73.1981 8.57318C73.1125 8.4061 73.0524 8.33265 73.036 8.25003C72.5914 5.85764 72.1541 3.46157 71.7077 1.06917C71.5729 0.343923 71.5438 0.320054 70.8295 0.318218C68.645 0.312709 66.4604 0.314546 64.2777 0.314546C64.0955 0.314546 63.9133 0.314546 63.7347 0.342087C63.5179 0.375136 63.5015 0.527529 63.6309 0.659726C64.0754 1.11874 64.5036 1.60347 64.9974 2.00373C65.5057 2.41317 65.5549 2.89973 65.451 3.47442C64.8152 7.03823 64.1848 10.602 63.5507 14.1658C63.4724 14.6047 63.5106 14.6855 63.9169 14.691C65.1613 14.7056 66.4039 14.691 67.6484 14.7001C67.9472 14.7001 68.0729 14.5679 68.1239 14.2778C68.2824 13.3488 68.4682 12.4234 68.6322 11.4962C68.8254 10.4001 69.0094 9.3021 69.2207 8.06275C69.3191 8.788 69.3993 9.36085 69.474 9.93187C69.6598 11.3493 69.8584 12.7668 70.0169 14.1879C70.0607 14.5826 70.2265 14.7075 70.5927 14.7038C71.5638 14.6928 72.5349 14.6799 73.5042 14.7112C73.9506 14.7258 74.1437 14.5092 74.3168 14.142C75.2223 12.2196 76.1479 10.3046 77.0899 8.34184C77.1045 8.48138 77.1354 8.57502 77.1208 8.65947C76.7874 10.5139 76.4558 12.3702 76.1078 14.2228C76.0477 14.5404 76.1352 14.6946 76.4558 14.6965C77.7294 14.6965 79.003 14.6965 80.2784 14.6965C80.4788 14.6965 80.6209 14.6138 80.661 14.3898C80.6938 14.2099 80.7666 14.0392 80.7976 13.8592C81.0545 12.3904 81.3023 10.9215 81.5556 9.45266C81.8926 7.50459 82.2297 5.55652 82.5686 3.60845C82.7198 2.73816 82.8893 1.87337 83.0168 0.999399C83.1134 0.340251 83.0878 0.329234 82.4611 0.325562V0.32189Z" fill="white"/>
<path d="M89.7727 0.321893C88.5902 0.30904 87.4078 0.331073 86.2253 0.314549C85.8481 0.30904 85.6896 0.455926 85.6295 0.823139C85.42 2.08268 85.1813 3.33672 84.959 4.59442C84.6201 6.50944 84.2831 8.4263 83.9478 10.3432C83.7164 11.6614 83.4978 12.9816 83.2536 14.298C83.1972 14.6028 83.3192 14.6946 83.5725 14.6965C84.2084 14.702 84.8461 14.6983 85.4819 14.6983V14.7038C86.0285 14.7038 86.5733 14.7112 87.1199 14.702C87.7867 14.691 87.8086 14.6671 87.9234 13.9914C88.2404 12.1333 88.5465 10.2734 88.8745 8.41528C89.319 5.9017 89.78 3.38996 90.2318 0.876385C90.312 0.430221 90.2391 0.327401 89.7709 0.321893H89.7727Z" fill="white"/>
<path d="M103.926 1.06917C104.026 0.424712 103.939 0.325565 103.281 0.321893C101.525 0.314548 99.7663 0.320057 98.0099 0.318221C96.1916 0.318221 94.3751 0.312712 92.5567 0.321893C91.9646 0.323729 91.9682 0.342089 91.8662 0.905762C91.715 1.74301 91.5601 2.57842 91.4089 3.41383C91.3087 3.96465 91.3615 4.03259 91.9555 4.03993C92.8045 4.05095 93.6517 4.03626 94.5008 4.04727C94.9526 4.05278 95.0182 4.14459 94.9435 4.59993C94.8797 4.98918 94.8105 5.37842 94.7413 5.76767C94.2402 8.57869 93.7374 11.3897 93.2381 14.2026C93.1634 14.6194 93.2053 14.6891 93.6371 14.6946C94.7886 14.7093 95.9401 14.7056 97.0916 14.6983C97.722 14.6946 97.804 14.623 97.9133 13.9914C98.1156 12.8237 98.2941 11.6523 98.4982 10.4864C98.8498 8.48138 99.2306 6.4819 99.5586 4.47324C99.6224 4.08767 99.7936 4.0436 100.096 4.04544C100.945 4.05278 101.792 4.05278 102.641 4.04544C103.361 4.03993 103.376 4.03809 103.525 3.31285C103.678 2.56924 103.807 1.82012 103.924 1.06917H103.926Z" fill="white"/>
<path d="M62.6014 13.8886C62.3974 12.8127 62.186 11.7404 61.9856 10.6645C61.6449 8.84125 61.3115 7.01804 60.9762 5.19482C60.7285 3.84898 60.5244 2.49396 60.2165 1.16282C59.996 0.213568 60.1673 0.325568 59.1543 0.321896C57.0936 0.314552 55.0311 0.32006 52.9704 0.32006C52.7026 0.32006 52.4348 0.32006 52.1651 0.32006C52.1305 0.378814 52.0959 0.439404 52.0595 0.498159C52.5441 0.993897 53.0215 1.49882 53.5207 1.9817C53.7266 2.18183 53.7612 2.3379 53.6154 2.6078C51.9939 5.57305 50.3851 8.54748 48.7744 11.5201C48.2807 12.4308 47.7924 13.3433 47.3095 14.2613C47.1328 14.5973 47.1856 14.691 47.5701 14.6965C48.4793 14.7093 49.3884 14.7075 50.2976 14.7001C50.8114 14.6965 51.3234 14.6689 51.8372 14.6524C52.1086 14.1842 52.3819 13.716 52.6534 13.2497C52.668 13.2239 52.6844 13.1964 52.6935 13.167C52.832 12.7686 53.0962 12.6144 53.5243 12.6236C54.7068 12.6474 55.8893 12.6364 57.0699 12.6291C57.5254 12.6272 57.6511 12.6896 57.6602 13.2074C57.6675 13.5691 57.7914 13.9253 57.8242 14.287C57.8534 14.6047 58.0192 14.702 58.2997 14.7001C58.9976 14.6983 59.6936 14.7001 60.3914 14.7001C60.9981 14.7001 61.603 14.6928 62.2097 14.6983C62.5176 14.7001 62.6579 14.5643 62.6251 14.254C62.6124 14.1328 62.616 14.0079 62.5942 13.8886H62.6014ZM56.7857 9.08361C56.1535 9.07994 55.5212 9.05424 54.889 9.03588C54.9017 8.43365 55.3008 7.99115 55.5285 7.48073C55.8127 6.84361 56.1462 6.22669 56.5342 5.45187C56.7292 6.66918 56.8932 7.69004 57.0572 8.70905C57.0936 8.93306 57.0098 9.08361 56.7839 9.08178L56.7857 9.08361Z" fill="white"/>
</g>
<defs>
<clipPath id="clip0_24_156">
<rect width="115" height="14.4297" fill="white" transform="translate(0.48455 0.285172)"/>
</clipPath>
</defs>
</svg>
