<svg width="56" height="44" viewBox="0 0 56 44" fill="none" xmlns="http://www.w3.org/2000/svg">
<g opacity="0.75">
<path d="M24.6022 34.8424L18.5601 13.26" stroke="#999999" stroke-width="1.5" stroke-linecap="round" stroke-linejoin="round"/>
<path d="M21.1326 13.6913C22.0289 13.7198 23.3486 13.6561 24.806 13.1412C26.8477 12.4201 27.5393 11.3868 29.4298 10.4831C30.4858 9.97833 32.0786 9.43638 34.3186 9.40466C35.2075 12.6526 36.0968 15.9002 36.9857 19.1481C35.0323 19.3335 33.5825 19.8297 32.6175 20.2503C30.3972 21.218 29.5958 22.2847 27.3511 23.0128C25.9383 23.4711 24.6917 23.5559 23.8675 23.5572C22.9559 20.2686 22.044 16.98 21.1323 13.6913H21.1326Z" stroke="#999999" stroke-width="1.5" stroke-linecap="round" stroke-linejoin="round"/>
<path d="M30.2682 21.3744C30.2649 21.3744 30.2616 21.3738 30.2583 21.3725C30.2504 21.3695 30.2441 21.3626 30.2419 21.3542L29.3161 18.0155C29.3131 18.0043 29.3174 17.9922 29.327 17.9857C29.7831 17.6715 30.2983 17.3363 30.9725 17.0139C31.3794 16.8195 31.8054 16.6491 32.2383 16.508C32.241 16.5072 32.244 16.5067 32.2468 16.5067C32.2511 16.5067 32.2558 16.5077 32.2596 16.5099C32.2662 16.5135 32.2711 16.5195 32.273 16.5266L33.2071 19.8965C33.2109 19.9104 33.2032 19.9249 33.1899 19.9295C32.8918 20.0348 32.6047 20.1477 32.3124 20.2754C31.488 20.635 30.8498 21.014 30.2829 21.37C30.2786 21.3727 30.2734 21.3741 30.2684 21.3741L30.2682 21.3744Z" fill="#999999"/>
<path d="M32.2465 16.534L33.1805 19.9038C32.8524 20.0198 32.5596 20.1376 32.3012 20.2506C31.4765 20.6101 30.8476 20.9831 30.2682 21.347L29.3423 18.0084C29.8162 17.6822 30.328 17.3524 30.984 17.0388C31.3417 16.8679 31.7611 16.6926 32.2462 16.5343M32.2462 16.4796C32.2405 16.4796 32.2347 16.4804 32.2292 16.4823C31.7953 16.6237 31.3685 16.7946 30.9602 16.9895C30.2843 17.3127 29.768 17.6485 29.3108 17.9633C29.2917 17.9764 29.283 18.0004 29.2892 18.0229L30.2151 21.3615C30.2198 21.3782 30.2321 21.3916 30.2479 21.3979C30.2542 21.4004 30.261 21.4017 30.2676 21.4017C30.2777 21.4017 30.2878 21.399 30.2966 21.3933C30.8626 21.0378 31.4997 20.6593 32.3225 20.3006C32.614 20.1734 32.9005 20.0605 33.198 19.9555C33.2251 19.9459 33.2401 19.917 33.2325 19.8893L32.2984 16.5195C32.2943 16.505 32.2848 16.493 32.2716 16.4859C32.2637 16.4815 32.2547 16.4793 32.2457 16.4793L32.2462 16.4796Z" fill="#999999"/>
<path d="M23.6775 23.5837C23.6652 23.5837 23.6545 23.5755 23.6512 23.5638L22.7341 20.2563C22.732 20.2478 22.7336 20.239 22.7391 20.2322C22.7443 20.2256 22.7522 20.2218 22.7607 20.2218H22.7615C22.855 20.2243 22.9493 20.2254 23.042 20.2254C24.1968 20.2254 25.3102 20.0389 26.3512 19.6714C26.4042 19.6528 26.4586 19.6328 26.5174 19.611C26.5204 19.6099 26.5237 19.6093 26.527 19.6093C26.5314 19.6093 26.5355 19.6104 26.5393 19.6123C26.5461 19.6159 26.5513 19.6219 26.5532 19.6293L27.4518 22.8709C27.4556 22.8845 27.4482 22.899 27.4348 22.904C27.3101 22.9499 27.178 22.9956 27.043 23.0396C25.9714 23.3871 24.8393 23.5706 23.6778 23.5843H23.6775V23.5837Z" fill="#999999"/>
<path d="M26.527 19.6361L27.4255 22.8777C27.3003 22.9239 27.1701 22.9688 27.0345 23.0128C25.6922 23.4484 24.4997 23.5465 23.6775 23.5564L22.7604 20.2489C22.8501 20.2511 22.9441 20.2524 23.0415 20.2524C23.9146 20.2524 25.0843 20.1472 26.3599 19.6968C26.4165 19.6769 26.472 19.6566 26.5267 19.6361M26.5267 19.5814C26.5202 19.5814 26.5136 19.5825 26.5076 19.585C26.4496 19.6069 26.3952 19.6265 26.3419 19.6454C25.3036 20.0121 24.1932 20.198 23.0415 20.198C22.9491 20.198 22.855 20.1969 22.7618 20.1945C22.7612 20.1945 22.7609 20.1945 22.7604 20.1945C22.7437 20.1945 22.7276 20.2021 22.7172 20.2155C22.7065 20.2292 22.703 20.247 22.7076 20.2639L23.6247 23.5714C23.6313 23.5952 23.6529 23.6116 23.6775 23.6116H23.6781C24.8423 23.5977 25.9771 23.4139 27.0514 23.0656C27.1876 23.0213 27.3197 22.9756 27.4444 22.9297C27.4712 22.9198 27.4857 22.8911 27.4783 22.8638L26.5798 19.6222C26.5757 19.6074 26.5656 19.5951 26.5519 19.588C26.5442 19.5842 26.5357 19.582 26.527 19.582L26.5267 19.5814Z" fill="#999999"/>
<path d="M22.237 17.161C22.1244 17.161 22.0093 17.159 21.8947 17.1558C21.8827 17.1555 21.8723 17.1473 21.8693 17.1358L20.9172 13.702C20.915 13.6938 20.9166 13.6848 20.9218 13.6779C20.927 13.6714 20.9349 13.6673 20.9434 13.6673H20.9439C21.0194 13.6689 21.0957 13.6697 21.1704 13.6697C22.3259 13.6697 23.4393 13.4832 24.4803 13.1157C24.5517 13.0906 24.6236 13.064 24.6947 13.0373C24.6977 13.0362 24.7013 13.0353 24.7045 13.0353C24.7089 13.0353 24.713 13.0364 24.7168 13.0383C24.7237 13.0419 24.7289 13.0479 24.7308 13.0553L25.6944 16.5301C25.6982 16.5438 25.6908 16.5583 25.6774 16.5632C25.6402 16.5769 25.6028 16.5906 25.5648 16.604C24.5186 16.9737 23.3989 17.1612 22.237 17.1612V17.161Z" fill="#999999"/>
<path d="M24.7045 13.0624L25.6681 16.5373C25.6312 16.5509 25.5937 16.5646 25.5557 16.5777C24.2804 17.0283 23.1098 17.1333 22.237 17.1333C22.1175 17.1333 22.0035 17.1314 21.8958 17.1281L20.9437 13.6943C21.0167 13.696 21.0927 13.6968 21.1706 13.6968C22.0437 13.6968 23.214 13.5918 24.4899 13.1412C24.5634 13.1152 24.6348 13.0889 24.7048 13.0624M24.7048 13.0077C24.6982 13.0077 24.6917 13.0088 24.6854 13.0113C24.6148 13.0381 24.5429 13.0646 24.4716 13.0898C23.4336 13.4564 22.3232 13.6424 21.1706 13.6424C21.096 13.6424 21.0199 13.6415 20.9448 13.6399C20.9445 13.6399 20.9439 13.6399 20.9437 13.6399C20.9267 13.6399 20.9108 13.6476 20.9005 13.661C20.8898 13.6746 20.8862 13.6924 20.8909 13.7091L21.843 17.1429C21.8493 17.1659 21.8701 17.1823 21.8941 17.1828C22.0087 17.1864 22.1241 17.188 22.237 17.188C23.4021 17.188 24.5249 16.9999 25.5741 16.6291C25.6134 16.6155 25.6517 16.6015 25.687 16.5884C25.7138 16.5785 25.7285 16.5498 25.7209 16.5225L24.7573 13.0476C24.7532 13.0329 24.7431 13.0203 24.7294 13.0135C24.7217 13.0096 24.7133 13.0074 24.7048 13.0074V13.0077Z" fill="#999999"/>
<path d="M28.4873 14.9513C28.4842 14.9513 28.481 14.9508 28.478 14.9497C28.4698 14.9467 28.4632 14.9398 28.461 14.9314L27.49 11.4289C27.487 11.4177 27.4914 11.4057 27.501 11.3991C27.9199 11.112 28.4378 10.7759 29.1019 10.4585C29.5252 10.2561 29.9676 10.0809 30.4164 9.93703C30.4191 9.93621 30.4218 9.93567 30.4246 9.93567C30.4289 9.93567 30.4336 9.93676 30.4377 9.93895C30.4442 9.9425 30.4492 9.94852 30.4511 9.95563L31.4133 13.4261C31.4171 13.44 31.4095 13.4548 31.3955 13.4595C30.9859 13.5956 30.5807 13.7589 30.1913 13.9448C29.508 14.2713 28.9762 14.6194 28.5028 14.9467C28.4982 14.95 28.4927 14.9516 28.4873 14.9516V14.9513Z" fill="#999999"/>
<path d="M30.4243 9.96301L31.3865 13.4335C30.9244 13.5869 30.5233 13.7556 30.1793 13.9199C29.4998 14.2448 28.9754 14.5863 28.4873 14.924L27.5163 11.4215C27.9779 11.1054 28.4777 10.7869 29.1134 10.4831C29.4831 10.3064 29.9184 10.1252 30.4246 9.96301M30.4246 9.90833C30.4188 9.90833 30.4134 9.90914 30.4079 9.91106C29.9578 10.0552 29.5143 10.231 29.0899 10.4339C28.4241 10.7522 27.9051 11.089 27.4854 11.3767C27.4663 11.3898 27.4572 11.4139 27.4635 11.4363L28.4345 14.9388C28.4391 14.9557 28.452 14.9697 28.4687 14.9757C28.4747 14.9779 28.481 14.9789 28.4873 14.9789C28.4982 14.9789 28.5091 14.9757 28.5184 14.9691C28.9907 14.6423 29.5214 14.2951 30.2031 13.9694C30.5914 13.784 30.9955 13.6211 31.404 13.4854C31.4316 13.4761 31.4472 13.4469 31.4396 13.419L30.4773 9.94852C30.4732 9.9343 30.4637 9.922 30.4505 9.91489C30.4426 9.91051 30.4336 9.90833 30.4246 9.90833Z" fill="#999999"/>
<path d="M32.2462 16.5613C32.2418 16.5613 32.2372 16.5603 32.2334 16.5581C32.2268 16.5545 32.2219 16.5485 32.22 16.5414L31.3603 13.4406C31.3564 13.4267 31.3641 13.4119 31.378 13.4072C32.4729 13.0441 33.6722 12.8453 34.9428 12.8163H34.9434C34.9557 12.8163 34.9666 12.8245 34.9696 12.8366L35.0353 13.0764C35.298 14.0356 35.5605 14.9948 35.823 15.954C35.8252 15.9622 35.8236 15.971 35.8187 15.9776C35.8137 15.9841 35.8058 15.9885 35.7973 15.9885C34.5332 16.0131 33.3413 16.2053 32.2547 16.5597C32.2519 16.5605 32.2489 16.5611 32.2462 16.5611V16.5613Z" fill="#999999"/>
<path d="M34.9434 12.8439C35.228 13.883 35.5124 14.9223 35.7968 15.9614C34.3503 15.9896 33.177 16.2305 32.2462 16.534L31.3865 13.4332C32.3159 13.125 33.4912 12.8767 34.9434 12.8439ZM34.9434 12.7892C34.9434 12.7892 34.9426 12.7892 34.942 12.7892C33.6686 12.8182 32.4666 13.0173 31.3693 13.3815C31.3417 13.3908 31.3261 13.4201 31.3337 13.448L32.1934 16.5487C32.1975 16.5632 32.2071 16.5753 32.2202 16.5824C32.2282 16.5867 32.2372 16.5889 32.2462 16.5889C32.252 16.5889 32.2577 16.5881 32.2632 16.5862C33.3471 16.2326 34.5365 16.041 35.7979 16.0164C35.8148 16.0161 35.8304 16.0079 35.8405 15.9945C35.8507 15.9811 35.8539 15.9636 35.8496 15.9472C35.5655 14.9089 35.2811 13.8704 34.997 12.8322L34.9964 12.8297C34.9899 12.8059 34.9683 12.7895 34.9437 12.7895L34.9434 12.7892Z" fill="#999999"/>
<path d="M26.527 19.6635C26.5226 19.6635 26.5185 19.6624 26.5147 19.6605C26.5078 19.6569 26.5026 19.6509 26.5007 19.6435L25.6416 16.5446C25.6378 16.531 25.6451 16.5165 25.6585 16.5116C26.7433 16.1129 27.4345 15.6278 28.1665 15.1146C28.2674 15.0437 28.3689 14.9727 28.4717 14.9013C28.4763 14.898 28.4818 14.8964 28.4873 14.8964C28.4903 14.8964 28.4935 14.8969 28.4966 14.898C28.5048 14.901 28.5113 14.9078 28.5135 14.9163L29.3685 18.0007C29.3716 18.0119 29.3672 18.0239 29.3576 18.0305C29.237 18.1136 29.1173 18.1976 29.0016 18.2788C28.2792 18.7855 27.5967 19.264 26.5366 19.6616C26.5335 19.6627 26.5303 19.6632 26.527 19.6632V19.6635Z" fill="#999999"/>
<path d="M28.4873 14.924L29.3423 18.0084C28.4886 18.5963 27.7577 19.1749 26.527 19.6362L25.6678 16.5373C26.9071 16.0817 27.6423 15.5086 28.4873 14.924ZM28.4873 14.8693C28.4763 14.8693 28.4654 14.8726 28.4561 14.8792C28.353 14.9505 28.2502 15.0227 28.1507 15.0924C27.4203 15.6049 26.7304 16.0886 25.649 16.4862C25.6222 16.496 25.6074 16.5247 25.6151 16.5521L26.4742 19.6509C26.4783 19.6657 26.4884 19.678 26.5021 19.6851C26.5098 19.6889 26.5185 19.6911 26.527 19.6911C26.5335 19.6911 26.5401 19.69 26.5461 19.6876C27.6095 19.2889 28.2931 18.8093 29.0172 18.3015C29.1328 18.2203 29.2526 18.1364 29.3732 18.0535C29.3923 18.0404 29.4011 18.0163 29.3948 17.9939L28.5398 14.9095C28.5351 14.8926 28.5223 14.8786 28.5056 14.8726C28.4996 14.8704 28.4933 14.8693 28.487 14.8693H28.4873Z" fill="#999999"/>
</g>
</svg>
